<svg width="18" height="21" viewBox="0 0 18 21" fill="none" xmlns="http://www.w3.org/2000/svg">
<path fill-rule="evenodd" clip-rule="evenodd" d="M0 3.34507C0 2.89839 0.133278 2.4607 0.384634 2.08191C1.12532 0.965712 2.68649 0.62639 3.8716 1.32401L16.8103 8.94053C17.1362 9.13234 17.4114 9.39153 17.615 9.69843C18.3557 10.8146 17.9954 12.285 16.8103 12.9826L3.8716 20.5992C3.46943 20.8359 3.00472 20.9614 2.53046 20.9614C1.13292 20.9614 0 19.8944 0 18.5781L0 3.34507Z" fill="#2C3437"/>
<mask id="mask0" style="mask-type:alpha" maskUnits="userSpaceOnUse" x="0" y="0" width="18" height="21">
<path fill-rule="evenodd" clip-rule="evenodd" d="M0 3.34507C0 2.89839 0.133278 2.4607 0.384634 2.08191C1.12532 0.965712 2.68649 0.62639 3.8716 1.32401L16.8103 8.94053C17.1362 9.13234 17.4114 9.39153 17.615 9.69843C18.3557 10.8146 17.9954 12.285 16.8103 12.9826L3.8716 20.5992C3.46943 20.8359 3.00472 20.9614 2.53046 20.9614C1.13292 20.9614 0 19.8944 0 18.5781L0 3.34507Z" fill="white"/>
</mask>
<g mask="url(#mask0)">
</g>
</svg>
